<mxfile host="Electron" agent="Mozilla/5.0 (Windows NT 10.0; Win64; x64) AppleWebKit/537.36 (KHTML, like Gecko) draw.io/24.7.8 Chrome/128.0.6613.36 Electron/32.0.1 Safari/537.36" version="24.7.8">
  <diagram name="Page-1" id="ZDpGKREb6qarR8-4PDdB">
    <mxGraphModel dx="955" dy="565" grid="1" gridSize="10" guides="1" tooltips="1" connect="1" arrows="1" fold="1" page="1" pageScale="1" pageWidth="1600" pageHeight="1200" math="0" shadow="0">
      <root>
        <mxCell id="0" />
        <mxCell id="1" parent="0" />
        <mxCell id="FzYbJvjjMYdeTcoXE-fb-1" value="Book" style="whiteSpace=wrap;html=1;align=center;" vertex="1" parent="1">
          <mxGeometry x="710" y="590" width="100" height="40" as="geometry" />
        </mxCell>
        <mxCell id="FzYbJvjjMYdeTcoXE-fb-3" value="Title" style="ellipse;whiteSpace=wrap;html=1;align=center;" vertex="1" parent="1">
          <mxGeometry x="520" y="670" width="100" height="40" as="geometry" />
        </mxCell>
        <mxCell id="FzYbJvjjMYdeTcoXE-fb-4" value="Publisher" style="ellipse;whiteSpace=wrap;html=1;align=center;" vertex="1" parent="1">
          <mxGeometry x="630" y="720" width="100" height="40" as="geometry" />
        </mxCell>
        <mxCell id="FzYbJvjjMYdeTcoXE-fb-5" value="Category" style="ellipse;whiteSpace=wrap;html=1;align=center;" vertex="1" parent="1">
          <mxGeometry x="780" y="720" width="100" height="40" as="geometry" />
        </mxCell>
        <mxCell id="FzYbJvjjMYdeTcoXE-fb-6" value="Author" style="ellipse;whiteSpace=wrap;html=1;align=center;" vertex="1" parent="1">
          <mxGeometry x="940" y="700" width="100" height="40" as="geometry" />
        </mxCell>
        <mxCell id="FzYbJvjjMYdeTcoXE-fb-7" value="Pages" style="ellipse;whiteSpace=wrap;html=1;align=center;" vertex="1" parent="1">
          <mxGeometry x="1000" y="640" width="100" height="40" as="geometry" />
        </mxCell>
        <mxCell id="FzYbJvjjMYdeTcoXE-fb-8" value="Language" style="ellipse;whiteSpace=wrap;html=1;align=center;" vertex="1" parent="1">
          <mxGeometry x="980" y="560" width="100" height="40" as="geometry" />
        </mxCell>
        <mxCell id="FzYbJvjjMYdeTcoXE-fb-9" value="Publication Year" style="ellipse;whiteSpace=wrap;html=1;align=center;" vertex="1" parent="1">
          <mxGeometry x="910" y="490" width="100" height="40" as="geometry" />
        </mxCell>
        <mxCell id="FzYbJvjjMYdeTcoXE-fb-10" value="ISBN" style="ellipse;whiteSpace=wrap;html=1;align=center;" vertex="1" parent="1">
          <mxGeometry x="780" y="450" width="100" height="40" as="geometry" />
        </mxCell>
        <mxCell id="FzYbJvjjMYdeTcoXE-fb-11" value="File&#39;s Content" style="ellipse;whiteSpace=wrap;html=1;align=center;" vertex="1" parent="1">
          <mxGeometry x="630" y="450" width="100" height="40" as="geometry" />
        </mxCell>
        <mxCell id="FzYbJvjjMYdeTcoXE-fb-12" value="Created At" style="ellipse;whiteSpace=wrap;html=1;align=center;" vertex="1" parent="1">
          <mxGeometry x="500" y="480" width="100" height="40" as="geometry" />
        </mxCell>
        <mxCell id="FzYbJvjjMYdeTcoXE-fb-13" value="Updated At" style="ellipse;whiteSpace=wrap;html=1;align=center;" vertex="1" parent="1">
          <mxGeometry x="470" y="540" width="100" height="40" as="geometry" />
        </mxCell>
        <mxCell id="FzYbJvjjMYdeTcoXE-fb-14" value="UUID" style="ellipse;whiteSpace=wrap;html=1;align=center;fontStyle=4;" vertex="1" parent="1">
          <mxGeometry x="470" y="600" width="100" height="40" as="geometry" />
        </mxCell>
        <mxCell id="FzYbJvjjMYdeTcoXE-fb-15" value="" style="endArrow=none;html=1;rounded=0;" edge="1" parent="1" source="FzYbJvjjMYdeTcoXE-fb-14" target="FzYbJvjjMYdeTcoXE-fb-1">
          <mxGeometry relative="1" as="geometry">
            <mxPoint x="660" y="600" as="sourcePoint" />
            <mxPoint x="820" y="600" as="targetPoint" />
          </mxGeometry>
        </mxCell>
        <mxCell id="FzYbJvjjMYdeTcoXE-fb-16" value="" style="endArrow=none;html=1;rounded=0;" edge="1" parent="1" source="FzYbJvjjMYdeTcoXE-fb-3" target="FzYbJvjjMYdeTcoXE-fb-1">
          <mxGeometry relative="1" as="geometry">
            <mxPoint x="660" y="600" as="sourcePoint" />
            <mxPoint x="820" y="600" as="targetPoint" />
          </mxGeometry>
        </mxCell>
        <mxCell id="FzYbJvjjMYdeTcoXE-fb-17" value="" style="endArrow=none;html=1;rounded=0;" edge="1" parent="1" source="FzYbJvjjMYdeTcoXE-fb-4" target="FzYbJvjjMYdeTcoXE-fb-1">
          <mxGeometry relative="1" as="geometry">
            <mxPoint x="660" y="600" as="sourcePoint" />
            <mxPoint x="820" y="600" as="targetPoint" />
          </mxGeometry>
        </mxCell>
        <mxCell id="FzYbJvjjMYdeTcoXE-fb-18" value="" style="endArrow=none;html=1;rounded=0;" edge="1" parent="1" source="FzYbJvjjMYdeTcoXE-fb-5" target="FzYbJvjjMYdeTcoXE-fb-1">
          <mxGeometry relative="1" as="geometry">
            <mxPoint x="660" y="600" as="sourcePoint" />
            <mxPoint x="820" y="600" as="targetPoint" />
          </mxGeometry>
        </mxCell>
        <mxCell id="FzYbJvjjMYdeTcoXE-fb-19" value="" style="endArrow=none;html=1;rounded=0;" edge="1" parent="1" source="FzYbJvjjMYdeTcoXE-fb-6" target="FzYbJvjjMYdeTcoXE-fb-1">
          <mxGeometry relative="1" as="geometry">
            <mxPoint x="660" y="600" as="sourcePoint" />
            <mxPoint x="820" y="600" as="targetPoint" />
          </mxGeometry>
        </mxCell>
        <mxCell id="FzYbJvjjMYdeTcoXE-fb-20" value="" style="endArrow=none;html=1;rounded=0;" edge="1" parent="1" source="FzYbJvjjMYdeTcoXE-fb-1" target="FzYbJvjjMYdeTcoXE-fb-7">
          <mxGeometry relative="1" as="geometry">
            <mxPoint x="660" y="600" as="sourcePoint" />
            <mxPoint x="880" y="620" as="targetPoint" />
          </mxGeometry>
        </mxCell>
        <mxCell id="FzYbJvjjMYdeTcoXE-fb-21" value="" style="endArrow=none;html=1;rounded=0;" edge="1" parent="1" source="FzYbJvjjMYdeTcoXE-fb-1" target="FzYbJvjjMYdeTcoXE-fb-8">
          <mxGeometry relative="1" as="geometry">
            <mxPoint x="660" y="600" as="sourcePoint" />
            <mxPoint x="820" y="600" as="targetPoint" />
          </mxGeometry>
        </mxCell>
        <mxCell id="FzYbJvjjMYdeTcoXE-fb-22" value="" style="endArrow=none;html=1;rounded=0;" edge="1" parent="1" source="FzYbJvjjMYdeTcoXE-fb-9" target="FzYbJvjjMYdeTcoXE-fb-1">
          <mxGeometry relative="1" as="geometry">
            <mxPoint x="660" y="600" as="sourcePoint" />
            <mxPoint x="820" y="600" as="targetPoint" />
          </mxGeometry>
        </mxCell>
        <mxCell id="FzYbJvjjMYdeTcoXE-fb-23" value="" style="endArrow=none;html=1;rounded=0;" edge="1" parent="1" source="FzYbJvjjMYdeTcoXE-fb-1" target="FzYbJvjjMYdeTcoXE-fb-10">
          <mxGeometry relative="1" as="geometry">
            <mxPoint x="660" y="600" as="sourcePoint" />
            <mxPoint x="820" y="600" as="targetPoint" />
          </mxGeometry>
        </mxCell>
        <mxCell id="FzYbJvjjMYdeTcoXE-fb-24" value="" style="endArrow=none;html=1;rounded=0;" edge="1" parent="1" source="FzYbJvjjMYdeTcoXE-fb-11" target="FzYbJvjjMYdeTcoXE-fb-1">
          <mxGeometry relative="1" as="geometry">
            <mxPoint x="660" y="600" as="sourcePoint" />
            <mxPoint x="820" y="600" as="targetPoint" />
          </mxGeometry>
        </mxCell>
        <mxCell id="FzYbJvjjMYdeTcoXE-fb-25" value="" style="endArrow=none;html=1;rounded=0;" edge="1" parent="1" source="FzYbJvjjMYdeTcoXE-fb-12" target="FzYbJvjjMYdeTcoXE-fb-1">
          <mxGeometry relative="1" as="geometry">
            <mxPoint x="660" y="600" as="sourcePoint" />
            <mxPoint x="820" y="600" as="targetPoint" />
          </mxGeometry>
        </mxCell>
        <mxCell id="FzYbJvjjMYdeTcoXE-fb-26" value="" style="endArrow=none;html=1;rounded=0;" edge="1" parent="1" source="FzYbJvjjMYdeTcoXE-fb-13" target="FzYbJvjjMYdeTcoXE-fb-1">
          <mxGeometry relative="1" as="geometry">
            <mxPoint x="660" y="600" as="sourcePoint" />
            <mxPoint x="820" y="600" as="targetPoint" />
          </mxGeometry>
        </mxCell>
      </root>
    </mxGraphModel>
  </diagram>
</mxfile>
